<svg viewBox="0 0 128 128" xmlns="http://www.w3.org/2000/svg">
  <!-- Background circle -->
  <circle cx="64" cy="64" r="60" fill="url(#grad)"/>
  <defs>
    <linearGradient id="grad" x1="0%" y1="0%" x2="100%" y2="100%">
      <stop offset="0%" style="stop-color:#FF6B9D;stop-opacity:1" />
      <stop offset="100%" style="stop-color:#C44DFF;stop-opacity:1" />
    </linearGradient>
  </defs>
  <!-- Cat face -->
  <circle cx="64" cy="68" r="30" fill="#FF9B50"/>
  <!-- Ears -->
  <polygon points="40,42 34,18 52,36" fill="#FF9B50"/>
  <polygon points="88,42 94,18 76,36" fill="#FF9B50"/>
  <polygon points="42,40 37,22 52,36" fill="#FFB8D0"/>
  <polygon points="86,40 91,22 76,36" fill="#FFB8D0"/>
  <!-- Eyes -->
  <ellipse cx="52" cy="64" rx="5" ry="6" fill="#333"/>
  <ellipse cx="76" cy="64" rx="5" ry="6" fill="#333"/>
  <circle cx="50" cy="62" r="2" fill="white"/>
  <circle cx="74" cy="62" r="2" fill="white"/>
  <!-- Nose -->
  <ellipse cx="64" cy="74" rx="3" ry="2.5" fill="#FFB8D0"/>
  <!-- Mouth -->
  <path d="M58,78 Q64,84 70,78" fill="none" stroke="#333" stroke-width="1.5"/>
  <!-- Whiskers -->
  <line x1="30" y1="70" x2="48" y2="72" stroke="#333" stroke-width="1"/>
  <line x1="30" y1="76" x2="48" y2="76" stroke="#333" stroke-width="1"/>
  <line x1="80" y1="72" x2="98" y2="70" stroke="#333" stroke-width="1"/>
  <line x1="80" y1="76" x2="98" y2="76" stroke="#333" stroke-width="1"/>
  <!-- Blush -->
  <circle cx="44" cy="76" r="4" fill="#FFB8D0" opacity="0.5"/>
  <circle cx="84" cy="76" r="4" fill="#FFB8D0" opacity="0.5"/>
  <!-- Heart -->
  <g transform="translate(90, 30) scale(0.6)">
    <path d="M0,-10 C-10,-25 -35,-10 0,15 C35,-10 10,-25 0,-10Z" fill="#FF4D6D"/>
  </g>
</svg>
